<?xml version="1.0" encoding="UTF-8"?>
<svg id="Layer_1" data-name="Layer 1" xmlns="http://www.w3.org/2000/svg" viewBox="0 0 400 400">
  <path d="M272.08,229.53c-2.72,0-5.37-1.39-6.87-3.89-2.26-3.78-1.04-8.69,2.74-10.96l.08-.05c1.03-.63,1.17-1.63,1.17-2.17,0-.55-.18-1.56-1.25-2.17L68.96,97.45c-1.85-1.05-3.21-2.8-3.77-4.86-.56-2.06-.27-4.25,.79-6.1,1.15-2,3.08-4.88,6.51-6.87L173.04,21.32c2.45-1.42,5.47-1.44,7.93-.05l109.04,61.33c2.49,1.4,4.04,4.02,4.08,6.88l1.48,122.69c.03,2.87-1.47,5.53-3.93,6.99l-5.2,3.07-10.11,6.09c-.06,.03-.11,.07-.17,.1-1.28,.76-2.69,1.12-4.08,1.12ZM87.36,89.49l188.47,106.89c1.32,.75,2.52,1.63,3.58,2.63l-1.27-104.73-101.03-56.83-89.76,52.04Z"/>
  <g>
    <path d="M179.95,282.81c-2.21,0-4.38-.87-6.01-2.53-2.25-2.29-2.92-5.71-1.69-8.68,1.22-2.94,4.06-4.87,7.23-4.94l.3-.03c3.82-.31,7.33,2.13,8.36,5.82,1.03,3.69-.7,7.6-4.13,9.31l-.29,.15c-1.2,.6-2.48,.89-3.76,.89Zm-3.09-15.34l3.33,6.66,5.15-5.07c-2.23-2.26-5.59-2.88-8.48-1.59Zm-.29,.14s-.01,0-.02,0c0,0,0,0,.01,0h0Z"/>
    <path d="M233.9,379.76c-1.45,0-2.9-.39-4.19-1.18l-54.4-33.41c-2.37-1.46-3.81-4.04-3.81-6.82v-61.79c0-1.58,.46-3.09,1.3-4.36,.64-2.01,2.06-3.75,4.05-4.75l14.61-7.3,91.86-54.62c2.46-1.46,5.51-1.5,8-.1l41.09,23.06c2.52,1.42,4.08,4.08,4.08,6.98v76.87c0,2.75-1.41,5.31-3.74,6.77l-94.6,59.42c-1.3,.82-2.78,1.23-4.26,1.23Zm-46.4-45.88l46.35,28.46,86.65-54.43v-67.76l-32.98-18.51-88.07,52.36s-.05,.03-.07,.04l-11.88,7.06v52.76Z"/>
    <path d="M179.53,282.66c-3.37,0-6.66-.91-9.54-2.64l-102.63-61.86c-2.4-1.45-3.87-4.05-3.87-6.85V95.72c0-3.24,.86-6.43,2.47-9.23,2.2-3.8,7.05-5.13,10.87-2.96l106.6,60.45c2.51,1.42,4.05,4.08,4.05,6.96v122.26c.27,1.49,.13,3.06-.48,4.51-1.23,2.96-4.11,4.91-7.32,4.94h-.17Zm5.82-13.59s0,0,0,0h0Zm-105.85-62.28l92,55.45v-106.63l-92-52.18v103.36Z"/>
  </g>
  <path d="M198,274.74c0,10.22-8.28,18.5-18.5,18.5s-18.5-8.28-18.5-18.5,8.28-18.5,18.5-18.5,18.5,8.28,18.5,18.5Z"/>
  <path d="M305.5,209.74c0,10.22-8.28,18.5-18.5,18.5s-18.5-8.28-18.5-18.5,8.28-18.5,18.5-18.5,18.5,8.28,18.5,18.5Z"/>
  <path d="M197.5,150.74c0,10.22-8.28,18.5-18.5,18.5s-18.5-8.28-18.5-18.5,8.28-18.5,18.5-18.5,18.5,8.28,18.5,18.5Z"/>
</svg>